<svg width="152" height="152" fill="none" xmlns="http://www.w3.org/2000/svg"><g clip-path="url(#a)"><path fill="#E84D37" d="M0 0h152v152H0z"/><path d="M76.1 24.7a24 24 0 0 1 20.4 11.5 22.7 22.7 0 0 1 0 23 7.8 7.8 0 0 1 6.3 5.1 7.4 7.4 0 0 1-1.8 7.8 7.8 7.8 0 0 1-8 1.8 7.7 7.7 0 0 1-5.2-6c-.3 0-.6.2-.9.4-.4 2.5-1.7 4.8-3.7 6.4a11 11 0 0 1-14.2 0c-2-1.6-3.3-4-3.7-6.4l-.9-.5a7.7 7.7 0 0 1-9.5 6.3 7.8 7.8 0 0 1-5.7-5.6 7.4 7.4 0 0 1 2.6-7.6 7.8 7.8 0 0 1 3.9-1.7 22.7 22.7 0 0 1 8.7-31.4c3.5-2 7.6-3 11.7-3Zm0-5.7a30 30 0 0 0-23.7 11.8A28.4 28.4 0 0 0 48 56.5a13 13 0 0 0-2.5 18.2A13.8 13.8 0 0 0 64 78a16.9 16.9 0 0 0 12.2 5 17.2 17.2 0 0 0 12-5 13.8 13.8 0 0 0 18.2-3.5 13 13 0 0 0-2.3-18 28.2 28.2 0 0 0-4.2-25.7A29.2 29.2 0 0 0 76 19Z" fill="#fff"/><path d="M95.5 83.3a17 17 0 0 1-6.7-1.4l-1 .7.5.4-3.3 3.2-1.3-1.4-1.8.6 2 2-3.3 3.1-3.2-3.1 1.2-1.3a21.2 21.2 0 0 1-4.9 0l1.3 1.3-3.2 3.1-3.3-3.1 2-2-1.8-.5-1.4 1.3L64 83l.4-.4-1-.7a17 17 0 0 1-6.6 1.4h-.5c-.1.4 0 .9.1 1.3l17 46.6v.2l.1.1.2.3.1.1.3.4h.1l.3.3.2.1.4.2h2.1l.3-.2h.2l.3-.3.4-.5.3-.4.1-.3 17-46.6c.2-.4.2-.9.2-1.3h-.5ZM83.8 96l-3.2 3.2-3.2-3.2 3.2-3.2 3.2 3.2ZM73 100.4l3.3-3.2 3.2 3.2-3.2 3.1-3.3-3.1Zm6.5 8.6-3.2 3.2-3.3-3.2 3.3-3.2 3.2 3.2Zm-3.2-20.5 3.2 3.2-3.2 3.2-3.3-3.2 3.3-3.2ZM75 96l-3.3 3.2-3.2-3.2 3.2-3.2L75 96ZM62.6 84.5l.3-.3 3.2 3.2-1.8 1.7-1.7-4.6Zm2.3 6.4 2.4-2.4 3.2 3.2-3.2 3.2-1.5-1.5-1-2.5Zm2.3 6.4h.1l3.2 3L69 102l-1.7-4.7Zm3.5 9.6-1.2-3.3 2.2-2.1 3.2 3.2-3.2 3.2-1-1Zm2.8 7.8-1.5-4.2 3 2.9-1.5 1.3Zm2.6 7-2-5.3 2-1.9 2 1.9-2 5.3Zm2.6-7-1.3-1.3 2.8-2.8-1.5 4Zm2.8-7.7-1 .9-3.1-3.2 3.2-3.2 2.1 2.1-1.2 3.4Zm1.9-5-1.6-1.6 3.2-3.2-1.6 4.7Zm3-8.5L85 95l-3.2-3.2 3.2-3.2 2.4 2.3-1 2.7Zm1.6-4.4-1.8-1.7 3.2-3.2.3.2-1.7 4.7Z" fill="#fff"/></g><defs><clipPath id="a"><rect width="152" height="152" rx="76" fill="#fff"/></clipPath></defs></svg>